<?xml version="1.0" standalone="no"?>
<!DOCTYPE svg PUBLIC "-//W3C//DTD SVG 20010904//EN"
 "http://www.w3.org/TR/2001/REC-SVG-20010904/DTD/svg10.dtd">
<svg version="1.0" xmlns="http://www.w3.org/2000/svg"
 width="71.000000pt" height="71.000000pt" viewBox="0 0 71.000000 71.000000"
 preserveAspectRatio="xMidYMid meet">

<g transform="translate(0.000000,71.000000) scale(0.100000,-0.100000)"
fill="#8E6FEC" stroke="none">
<path d="M265 697 c-111 -37 -181 -97 -229 -197 -45 -93 -45 -197 0 -290 40
-82 92 -134 174 -174 93 -45 197 -45 290 0 82 40 134 92 174 174 27 56 31 76
31 145 0 69 -4 89 -31 145 -39 82 -92 135 -172 173 -75 35 -173 45 -237 24z
m183 -112 c49 -21 110 -80 133 -130 25 -53 25 -147 0 -200 -23 -50 -84 -109
-133 -130 -21 -8 -62 -15 -93 -15 -31 0 -72 7 -93 15 -49 21 -110 80 -133 130
-23 50 -25 142 -4 193 21 49 80 110 130 133 50 23 142 25 193 4z"/>
<path d="M314 525 c-15 -23 -15 -27 0 -50 10 -15 26 -25 41 -25 15 0 31 10 41
25 15 23 15 27 0 50 -10 15 -26 25 -41 25 -15 0 -31 -10 -41 -25z"/>
<path d="M331 396 c-8 -9 -11 -49 -9 -116 2 -83 6 -105 20 -113 12 -8 21 -7
32 2 13 11 16 35 16 115 0 100 -7 126 -36 126 -6 0 -17 -6 -23 -14z"/>
</g>
</svg>
