<?xml version="1.0" standalone="no"?>
<!DOCTYPE svg PUBLIC "-//W3C//DTD SVG 20010904//EN"
 "http://www.w3.org/TR/2001/REC-SVG-20010904/DTD/svg10.dtd">
<svg version="1.0" xmlns="http://www.w3.org/2000/svg"
 width="151.000000pt" height="151.000000pt" viewBox="0 0 151.000000 151.000000"
 preserveAspectRatio="xMidYMid meet">

<g transform="translate(0.000000,151.000000) scale(0.100000,-0.100000)"
fill="#8E6FEC" stroke="none">
<path d="M332 1243 l268 -268 47 47 47 47 -95 103 c-133 146 -131 143 -222
245 l-82 92 -115 1 -115 0 267 -267z"/>
<path d="M1156 1442 c-32 -37 -80 -89 -105 -117 -25 -27 -91 -99 -146 -160
-55 -60 -102 -112 -105 -115 -3 -3 -70 -77 -150 -165 -79 -88 -165 -182 -191
-210 -26 -27 -58 -63 -72 -80 -35 -42 -57 -23 -57 51 l0 54 -45 0 -45 0 0 -68
0 -67 163 -163 162 -162 68 0 67 0 0 45 0 45 -54 0 c-36 0 -58 5 -66 15 -13
15 8 38 151 165 16 14 197 178 403 365 l375 340 0 115 1 115 -508 -508 -507
-507 -33 32 -32 33 507 507 508 508 -115 0 -115 -1 -59 -67z"/>
<path d="M1 1330 l0 -115 221 -200 c121 -110 224 -201 228 -203 3 -1 25 19 47
46 l41 49 -269 269 -269 269 1 -115z"/>
<path d="M1180 646 c0 -37 -5 -58 -16 -67 -13 -11 -22 -5 -64 42 l-49 54 -38
-37 -37 -38 52 -53 52 -53 -32 -32 -33 -32 -55 55 -55 54 -39 -36 -39 -37 58
-53 c49 -44 56 -55 45 -68 -8 -10 -30 -15 -66 -15 l-54 0 0 -45 0 -45 68 0 67
0 163 163 162 162 0 68 0 67 -45 0 -45 0 0 -54z"/>
<path d="M210 375 l-45 -45 83 -83 82 -82 45 45 45 45 -83 83 -83 82 -44 -45z"/>
<path d="M1172 337 l-82 -83 45 -44 45 -45 83 83 82 82 -45 45 -45 45 -83 -83z"/>
<path d="M50 215 l-45 -45 83 -83 82 -82 47 48 48 47 -80 80 c-44 44 -82 80
-85 80 -3 0 -26 -20 -50 -45z"/>
<path d="M1325 180 l-80 -80 48 -47 47 -48 82 82 83 83 -45 45 c-24 25 -47 45
-50 45 -3 0 -41 -36 -85 -80z"/>
</g>
</svg>
