<?xml version="1.0" standalone="no"?>
<!DOCTYPE svg PUBLIC "-//W3C//DTD SVG 20010904//EN"
 "http://www.w3.org/TR/2001/REC-SVG-20010904/DTD/svg10.dtd">
<svg version="1.0" xmlns="http://www.w3.org/2000/svg"
 width="162.000000pt" height="134.000000pt" viewBox="0 0 162.000000 134.000000"
 preserveAspectRatio="xMidYMid meet">

<g transform="translate(0.000000,134.000000) scale(0.100000,-0.100000)"
fill="#8E6FEC" stroke="none">
<path d="M452 1314 c-40 -20 -57 -35 -70 -63 -9 -20 -23 -45 -32 -56 -12 -16
-10 -16 11 3 14 12 33 22 42 22 24 0 84 56 96 90 5 17 9 30 8 30 -1 -1 -26
-12 -55 -26z"/>
<path d="M1122 1309 c11 -33 71 -89 95 -89 9 0 28 -10 42 -22 21 -19 23 -19
10 -3 -9 11 -21 34 -28 52 -14 34 -36 52 -94 76 l-35 15 10 -29z"/>
<path d="M294 1287 c-36 -55 -47 -102 -34 -142 6 -19 9 -40 5 -47 -4 -7 1 -4
9 6 13 16 27 19 74 17 47 -1 64 2 86 20 21 17 25 24 14 31 -21 13 -111 7 -131
-10 -17 -15 -17 -14 -2 21 15 37 21 137 8 137 -5 0 -17 -15 -29 -33z"/>
<path d="M1290 1270 c0 -28 7 -67 15 -87 15 -35 15 -36 -2 -21 -20 17 -110 23
-131 10 -11 -7 -7 -14 14 -31 22 -18 39 -21 86 -20 47 2 61 -1 74 -17 8 -10
13 -13 9 -6 -4 7 -1 28 5 47 9 27 9 44 -1 73 -14 41 -50 102 -61 102 -5 0 -8
-23 -8 -50z"/>
<path d="M187 1183 c-26 -46 -38 -166 -18 -186 14 -14 13 -53 -4 -97 l-13 -35
-1 40 c-2 43 -34 125 -50 125 -5 0 -13 -25 -17 -56 -7 -61 6 -123 31 -144 10
-9 15 -31 15 -74 l-1 -61 -13 38 c-17 46 -56 105 -75 112 -11 4 -13 -5 -8 -48
7 -67 35 -129 65 -142 12 -5 22 -19 22 -30 0 -11 3 -38 7 -59 l6 -40 -38 43
c-43 48 -95 80 -95 59 1 -50 79 -158 115 -158 12 0 25 -6 28 -12 3 -7 14 -37
26 -66 l21 -53 -33 25 c-18 14 -52 28 -76 32 -43 7 -43 7 -31 -17 7 -13 28
-41 48 -62 31 -32 42 -37 82 -37 41 0 47 -4 70 -38 34 -51 35 -56 12 -43 -26
14 -112 14 -132 1 -13 -9 -12 -13 5 -26 29 -23 97 -54 120 -54 11 0 30 7 42
15 19 13 24 12 67 -16 47 -31 58 -43 31 -33 -23 9 -76 -4 -114 -27 -39 -23
-34 -31 32 -50 48 -13 89 -4 126 27 24 20 33 23 56 14 33 -12 48 -13 41 -1 -3
5 -22 12 -41 15 -33 7 -35 9 -35 46 0 21 -5 52 -12 67 -13 31 -57 83 -70 83
-22 0 1 -108 31 -144 16 -19 16 -19 -17 0 -18 10 -42 29 -53 40 -18 19 -19 27
-9 62 12 47 2 108 -26 150 l-18 27 -9 -35 c-5 -19 -7 -59 -5 -87 5 -59 4 -59
-27 -6 -22 36 -22 37 -4 77 19 42 24 100 13 155 -4 17 -10 31 -14 31 -4 0 -18
-32 -31 -72 l-23 -72 -12 29 c-19 44 -17 63 11 99 35 47 55 99 55 148 l0 43
-25 -30 c-13 -16 -35 -51 -49 -77 l-24 -47 -5 46 c-6 59 -3 68 38 92 39 23 78
91 73 128 l-3 26 -34 -29 c-19 -15 -43 -42 -53 -59 l-20 -30 7 49 c9 67 12 73
43 79 39 8 79 43 102 88 11 21 18 39 16 39 -14 0 -84 -37 -103 -54 -27 -23
-28 -18 -8 31 18 44 32 54 61 47 27 -7 70 15 104 51 l25 27 -50 -4 c-27 -3
-59 -8 -69 -13 -15 -6 -18 -5 -12 6 4 8 1 6 -6 -4 -7 -10 -17 -25 -23 -33 -7
-10 -10 8 -10 60 0 67 -14 113 -28 89z"/>
<path d="M1409 1164 c-6 -16 -9 -55 -7 -88 3 -43 2 -54 -6 -43 -6 8 -17 24
-24 34 -7 10 -10 12 -6 4 6 -11 3 -13 -12 -6 -26 11 -114 23 -114 15 0 -10 52
-56 78 -70 13 -6 34 -9 46 -6 29 7 42 -3 61 -47 20 -49 19 -54 -7 -31 -20 17
-90 54 -104 54 -2 0 5 -18 16 -39 23 -45 63 -80 102 -88 31 -6 34 -12 43 -79
l7 -49 -20 30 c-10 17 -34 44 -53 59 l-34 29 -3 -26 c-5 -37 34 -105 73 -128
41 -24 46 -37 38 -94 l-6 -44 -23 47 c-14 26 -36 61 -49 77 l-25 30 0 -43 c0
-49 20 -101 55 -148 28 -36 30 -55 11 -99 l-12 -29 -23 72 c-13 40 -27 72 -31
72 -4 0 -10 -14 -14 -31 -11 -55 -6 -113 13 -155 18 -40 18 -41 -4 -77 -31
-53 -32 -53 -27 6 2 28 0 68 -5 87 l-9 35 -18 -27 c-28 -42 -38 -103 -26 -150
10 -35 9 -43 -9 -62 -11 -11 -35 -30 -53 -40 -33 -19 -33 -19 -17 0 30 36 53
144 31 144 -13 0 -57 -52 -70 -83 -7 -15 -12 -46 -12 -67 0 -37 -2 -39 -35
-46 -19 -3 -38 -10 -41 -15 -7 -12 8 -11 41 1 23 9 32 6 56 -14 16 -13 42 -27
58 -31 29 -6 93 7 120 24 30 19 -95 72 -134 57 -27 -10 -16 2 31 33 43 28 48
29 67 16 12 -8 31 -15 42 -15 23 0 91 31 120 54 17 13 18 17 5 26 -20 13 -106
13 -132 -1 -23 -13 -22 -8 12 43 23 34 29 38 70 38 40 0 51 5 82 38 20 20 41
48 48 61 12 24 12 24 -31 17 -24 -4 -58 -18 -76 -32 l-33 -25 21 53 c12 29 23
59 26 66 3 6 16 12 28 12 36 0 114 108 115 158 0 21 -52 -11 -95 -59 l-38 -43
6 40 c4 21 7 48 7 59 0 11 10 25 23 30 29 13 57 75 64 142 5 43 3 52 -8 48
-19 -7 -58 -66 -75 -112 l-13 -38 -1 61 c0 43 5 65 15 74 25 21 38 83 31 144
-4 31 -12 56 -17 56 -16 0 -48 -82 -50 -125 l-1 -40 -13 35 c-17 44 -18 83 -4
97 22 22 6 157 -22 187 -5 5 -13 -3 -20 -20z"/>
<path d="M746 902 l-54 -108 -116 -15 c-64 -9 -119 -19 -123 -23 -4 -4 33 -47
81 -95 l88 -89 -16 -93 c-10 -52 -20 -104 -23 -116 -9 -40 20 -35 125 22 l101
55 106 -56 c64 -34 110 -53 116 -47 5 5 0 54 -13 122 l-21 113 89 89 c48 48
85 91 81 95 -4 4 -59 14 -123 23 l-116 15 -54 108 c-30 59 -59 108 -64 108 -5
0 -34 -49 -64 -108z"/>
</g>
</svg>
