<?xml version="1.0" standalone="no"?>
<!DOCTYPE svg PUBLIC "-//W3C//DTD SVG 20010904//EN"
 "http://www.w3.org/TR/2001/REC-SVG-20010904/DTD/svg10.dtd">
<svg version="1.0" xmlns="http://www.w3.org/2000/svg"
 width="166.000000pt" height="166.000000pt" viewBox="0 0 166.000000 166.000000"
 preserveAspectRatio="xMidYMid meet">

<g transform="translate(0.000000,166.000000) scale(0.100000,-0.100000)"
fill="#8E6FEC" stroke="none">
<path d="M735 1650 c-233 -50 -394 -214 -443 -449 -20 -98 -8 -201 35 -303 34
-80 108 -178 163 -216 l39 -27 1 -87 0 -88 45 0 45 0 0 -50 0 -50 -45 0 -45 0
0 -45 0 -45 45 0 45 0 0 45 0 45 210 0 210 0 0 -45 0 -45 45 0 45 0 0 45 0 45
-45 0 -45 0 0 50 0 50 45 0 45 0 0 88 1 87 39 27 c95 66 182 221 203 361 9 66
9 91 -6 160 -53 259 -258 440 -512 452 -44 2 -98 0 -120 -5z m92 -382 c158
-94 209 -124 241 -140 12 -6 22 -14 22 -17 0 -6 -394 -241 -404 -241 -3 0 -6
108 -6 240 0 132 2 240 4 240 3 0 67 -37 143 -82z"/>
<path d="M780 1110 c0 -33 3 -60 6 -60 10 0 94 52 94 59 0 6 -86 61 -95 61 -3
0 -5 -27 -5 -60z"/>
<path d="M71 1449 c-7 -23 -11 -42 -9 -44 4 -4 138 -55 145 -55 10 0 34 73 26
81 -6 6 -138 59 -148 59 -1 0 -7 -18 -14 -41z"/>
<path d="M1498 1462 c-36 -15 -69 -30 -72 -33 -10 -10 24 -81 37 -76 7 2 40
14 75 27 34 12 62 27 62 33 0 17 -23 77 -30 76 -3 0 -35 -13 -72 -27z"/>
<path d="M0 1110 l0 -50 85 0 85 0 0 50 0 50 -85 0 -85 0 0 -50z"/>
<path d="M1490 1110 l0 -50 85 0 85 0 0 50 0 50 -85 0 -85 0 0 -50z"/>
<path d="M135 843 c-38 -13 -72 -27 -74 -29 -5 -5 20 -84 27 -84 14 0 152 55
152 61 0 8 -30 79 -33 78 -1 0 -33 -12 -72 -26z"/>
<path d="M1435 833 c-8 -20 -15 -38 -15 -42 0 -6 151 -64 155 -59 1 2 9 21 18
44 l15 40 -79 26 -79 26 -15 -35z"/>
<path d="M624 218 c4 -34 13 -76 20 -93 26 -60 121 -125 186 -125 65 0 160 65
186 125 7 17 16 59 20 93 l7 62 -213 0 -213 0 7 -62z"/>
</g>
</svg>
