<?xml version="1.0" standalone="no"?>
<!DOCTYPE svg PUBLIC "-//W3C//DTD SVG 20010904//EN"
 "http://www.w3.org/TR/2001/REC-SVG-20010904/DTD/svg10.dtd">
<svg version="1.0" xmlns="http://www.w3.org/2000/svg"
 width="132.000000pt" height="132.000000pt" viewBox="0 0 132.000000 132.000000"
 preserveAspectRatio="xMidYMid meet">

<g transform="translate(0.000000,132.000000) scale(0.100000,-0.100000)"
fill="#8E6FEC" stroke="none">
<path d="M1240 1300 c-13 -13 -20 -33 -20 -57 0 -38 0 -38 -41 -39 -52 0 -79
-29 -79 -85 0 -39 0 -39 -39 -39 -56 0 -86 -27 -86 -79 0 -41 0 -41 -38 -41
-52 0 -87 -35 -87 -87 0 -37 -1 -38 -39 -38 -21 -1 -46 -7 -55 -14 -35 -29 -7
-79 36 -65 13 4 44 6 69 5 61 -3 74 13 65 79 l-7 51 51 -7 c67 -9 80 3 80 73
l0 55 44 -6 c38 -6 48 -4 66 14 17 17 20 28 14 69 l-6 48 51 -5 c72 -7 81 4
78 91 -3 99 -17 117 -57 77z"/>
<path d="M724 1278 c-4 -6 -8 -48 -8 -92 -2 -90 -19 -135 -84 -215 -27 -34
-33 -47 -25 -60 30 -48 92 2 147 119 24 50 32 82 34 141 3 45 -1 85 -7 98 -13
23 -45 28 -57 9z"/>
<path d="M910 1189 c-9 -15 -8 -24 1 -35 28 -33 80 -3 59 35 -6 12 -19 21 -30
21 -11 0 -24 -9 -30 -21z"/>
<path d="M523 1134 c-8 -22 10 -49 32 -49 22 0 40 27 32 49 -8 21 -56 21 -64
0z"/>
<path d="M407 923 c-21 -33 -47 -168 -47 -238 0 -155 57 -296 167 -414 l63
-69 67 25 c36 13 70 26 75 29 5 3 -8 24 -28 47 -84 99 -154 295 -154 434 l0
59 -69 68 c-38 37 -71 64 -74 59z"/>
<path d="M1184 915 c-14 -37 26 -69 53 -42 22 22 8 57 -23 57 -14 0 -27 -7
-30 -15z"/>
<path d="M1117 769 c-57 -13 -132 -55 -177 -98 -36 -34 -40 -42 -30 -60 15
-29 36 -26 78 10 65 57 137 84 227 84 l80 0 0 30 c0 23 -6 31 -25 36 -35 10
-108 9 -153 -2z"/>
<path d="M216 579 c-55 -149 -57 -159 -46 -196 21 -65 81 -166 133 -220 l49
-52 51 21 c29 11 63 24 75 29 24 9 23 10 -22 60 -105 117 -165 261 -175 420
l-6 96 -59 -158z"/>
<path d="M635 680 c26 -150 73 -256 150 -336 l50 -52 63 25 c49 20 62 29 62
46 0 15 -53 75 -165 187 -154 154 -165 163 -160 130z"/>
<path d="M1130 535 c-18 -22 -1 -50 31 -50 20 0 24 5 24 30 0 23 -5 31 -21 33
-11 2 -27 -4 -34 -13z"/>
<path d="M66 178 c-50 -133 -53 -149 -32 -167 11 -9 35 -4 113 25 54 20 101
39 105 43 4 3 -10 27 -31 51 -21 25 -54 74 -73 108 l-35 62 -47 -122z"/>
</g>
</svg>
