<?xml version="1.0" standalone="no"?>
<!DOCTYPE svg PUBLIC "-//W3C//DTD SVG 20010904//EN"
 "http://www.w3.org/TR/2001/REC-SVG-20010904/DTD/svg10.dtd">
<svg version="1.0" xmlns="http://www.w3.org/2000/svg"
 width="125.000000pt" height="125.000000pt" viewBox="0 0 125.000000 125.000000"
 preserveAspectRatio="xMidYMid meet">

<g transform="translate(0.000000,125.000000) scale(0.100000,-0.100000)"
fill="#8E6FEC" stroke="none">
<path d="M405 1060 c142 -142 154 -149 170 -99 5 14 -18 46 -92 128 l-98 109
-60 1 -60 1 140 -140z"/>
<path d="M646 957 c-121 -133 -225 -242 -230 -242 -6 0 -12 15 -14 33 -2 24
-8 32 -23 32 -15 0 -19 -7 -19 -38 0 -34 8 -46 83 -120 69 -69 88 -82 115 -82
25 0 32 4 32 19 0 14 -8 21 -27 23 -14 2 -28 8 -30 14 -2 6 105 109 237 229
l240 218 0 56 0 56 -259 -259 c-225 -225 -262 -258 -275 -247 -9 8 -16 17 -16
22 0 5 117 126 260 269 l260 260 -57 0 -58 -1 -219 -242z"/>
<path d="M240 1099 l0 -56 93 -84 c146 -133 130 -123 155 -96 l22 23 -135 134
-135 135 0 -56z"/>
<path d="M850 751 c0 -42 -19 -49 -47 -16 -23 26 -25 27 -44 9 -19 -17 -19
-18 8 -46 25 -27 26 -29 10 -45 -16 -16 -19 -15 -47 12 -28 27 -31 28 -47 12
-16 -16 -15 -19 11 -46 31 -32 28 -51 -10 -51 -17 0 -24 -5 -24 -20 0 -15 7
-20 28 -20 22 0 48 19 115 84 78 75 87 88 87 120 0 29 -4 36 -20 36 -15 0 -20
-7 -20 -29z"/>
<path d="M342 607 l-22 -23 43 -42 43 -42 22 23 22 23 -43 42 -43 42 -22 -23z"/>
<path d="M842 587 l-42 -43 23 -22 23 -22 42 44 42 43 -23 21 -23 22 -42 -43z"/>
<path d="M263 528 c-24 -26 -22 -31 33 -81 l30 -27 22 23 22 23 -43 42 -43 42
-21 -22z"/>
<path d="M922 507 l-42 -43 23 -22 23 -22 42 43 42 43 -23 22 -23 22 -42 -43z"/>
<path d="M194 369 c-27 -14 -54 -60 -54 -94 0 -38 24 -79 55 -93 77 -35 155 9
155 88 0 23 -5 50 -10 61 -22 41 -98 61 -146 38z"/>
<path d="M571 366 c-45 -25 -64 -91 -40 -139 39 -76 149 -76 188 0 47 92 -56
190 -148 139z"/>
<path d="M948 364 c-36 -19 -48 -43 -48 -94 0 -81 82 -125 159 -86 49 26 65
94 34 146 -29 49 -91 64 -145 34z"/>
<path d="M100 70 l0 -70 151 0 151 0 -4 65 c-2 35 -6 67 -10 70 -3 3 -25 -6
-49 -20 -59 -33 -121 -33 -183 0 -26 14 -49 25 -52 25 -2 0 -4 -31 -4 -70z"/>
<path d="M476 118 c-3 -13 -6 -44 -6 -70 l0 -48 156 0 156 0 -4 65 c-2 35 -6
67 -9 69 -3 3 -27 -6 -54 -19 -63 -32 -118 -32 -181 0 -27 14 -50 25 -50 25
-1 0 -4 -10 -8 -22z"/>
<path d="M856 118 c-3 -13 -6 -44 -6 -70 l0 -48 150 0 150 0 0 70 c0 39 -2 70
-4 70 -3 0 -26 -11 -52 -25 -62 -33 -124 -33 -183 0 -23 14 -44 25 -46 25 -1
0 -5 -10 -9 -22z"/>
</g>
</svg>
