<?xml version="1.0" standalone="no"?>
<!DOCTYPE svg PUBLIC "-//W3C//DTD SVG 20010904//EN"
 "http://www.w3.org/TR/2001/REC-SVG-20010904/DTD/svg10.dtd">
<svg version="1.0" xmlns="http://www.w3.org/2000/svg"
 width="158.000000pt" height="156.000000pt" viewBox="0 0 158.000000 156.000000"
 preserveAspectRatio="xMidYMid meet">

<g transform="translate(0.000000,156.000000) scale(0.100000,-0.100000)"
fill="#8E6FEC" stroke="none">
<path d="M412 1540 c-104 -28 -167 -65 -248 -145 -103 -102 -164 -244 -164
-380 0 -223 165 -450 375 -514 205 -63 402 -16 550 132 85 84 127 160 149 270
20 95 20 129 0 224 -49 241 -256 416 -504 429 -64 3 -103 -1 -158 -16z m264
-150 c163 -57 266 -202 266 -375 0 -170 -101 -316 -260 -375 -67 -25 -184 -28
-256 -6 -112 34 -216 136 -257 252 -54 155 9 357 140 448 109 76 250 98 367
56z"/>
<path d="M255 1200 c-6 -10 2 -42 83 -350 39 -145 39 -145 76 -163 21 -10 47
-17 58 -15 22 3 28 19 83 228 15 58 31 111 35 118 4 8 28 -63 54 -157 l48
-170 30 15 c17 9 49 34 72 57 37 38 44 54 75 167 30 114 32 129 21 170 -15 55
-37 100 -50 100 -11 0 -22 -37 -56 -195 -23 -109 -44 -166 -44 -123 0 25 -81
301 -92 316 -6 6 -30 12 -53 12 -23 0 -47 -6 -53 -12 -5 -7 -29 -84 -52 -170
-24 -87 -46 -158 -49 -158 -3 0 -21 66 -40 148 -46 201 -42 192 -95 192 -25 0
-48 -5 -51 -10z"/>
<path d="M1032 672 c-31 -48 -93 -111 -142 -144 l-25 -16 245 -246 c167 -168
255 -250 278 -257 104 -34 215 74 184 178 -9 30 -68 94 -260 286 l-248 248
-32 -49z"/>
</g>
</svg>
