<?xml version="1.0" standalone="no"?>
<!DOCTYPE svg PUBLIC "-//W3C//DTD SVG 20010904//EN"
 "http://www.w3.org/TR/2001/REC-SVG-20010904/DTD/svg10.dtd">
<svg version="1.0" xmlns="http://www.w3.org/2000/svg"
 width="70.000000pt" height="70.000000pt" viewBox="0 0 70.000000 70.000000"
 preserveAspectRatio="xMidYMid meet">

<g transform="translate(0.000000,70.000000) scale(0.100000,-0.100000)"
fill="#8E6FEC" stroke="none">
<path d="M315 688 c-49 -28 -59 -78 -24 -122 29 -37 89 -37 118 0 35 45 24 96
-26 122 -27 15 -42 15 -68 0z"/>
<path d="M540 590 c-12 -12 -20 -33 -20 -55 0 -35 28 -75 51 -75 7 0 -3 -10
-22 -23 -37 -25 -64 -86 -54 -125 5 -22 9 -23 103 -20 l97 3 3 38 c4 46 -16
80 -61 107 -18 12 -25 20 -16 20 26 0 53 38 53 75 0 19 -8 43 -19 55 -25 27
-88 27 -115 0z"/>
<path d="M62 523 c-21 -8 -43 -61 -36 -88 3 -14 17 -34 30 -44 27 -21 30 -31
11 -31 -8 0 -24 -11 -37 -25 -18 -19 -24 -37 -24 -73 l-1 -47 97 -3 c111 -3
118 3 98 78 -8 31 -20 47 -47 63 -23 13 -31 22 -22 25 53 16 67 91 26 130 -22
21 -64 28 -95 15z"/>
<path d="M279 500 c-26 -26 -30 -36 -27 -77 l3 -48 95 0 95 0 3 48 c3 41 -1
51 -27 77 -23 24 -38 30 -71 30 -33 0 -48 -6 -71 -30z"/>
<path d="M255 317 c-3 -7 -4 -80 -3 -162 l3 -150 95 0 95 0 0 160 0 160 -93 3
c-70 2 -94 0 -97 -11z"/>
<path d="M502 238 c-14 -14 -17 -205 -4 -226 6 -9 34 -12 103 -10 l94 3 0 120
0 120 -90 3 c-62 2 -94 -1 -103 -10z"/>
<path d="M2 83 l3 -78 94 -3 c108 -3 111 -2 111 75 0 84 1 83 -111 83 l-100 0
3 -77z"/>
</g>
</svg>
