<?xml version="1.0" standalone="no"?>
<!DOCTYPE svg PUBLIC "-//W3C//DTD SVG 20010904//EN"
 "http://www.w3.org/TR/2001/REC-SVG-20010904/DTD/svg10.dtd">
<svg version="1.0" xmlns="http://www.w3.org/2000/svg"
 width="62.000000pt" height="70.000000pt" viewBox="0 0 62.000000 70.000000"
 preserveAspectRatio="xMidYMid meet">

<g transform="translate(0.000000,70.000000) scale(0.100000,-0.100000)"
fill="#8E6FEC" stroke="none">
<path d="M16 684 c-24 -23 -23 -389 1 -460 24 -73 110 -152 206 -193 42 -17
81 -31 87 -31 6 0 45 14 87 31 96 41 182 120 206 193 24 71 25 437 1 460 -20
20 -26 20 -71 -4 -52 -28 -133 -27 -184 2 l-39 22 -39 -22 c-51 -29 -132 -30
-184 -2 -45 24 -51 24 -71 4z m334 -169 c36 -19 50 -43 50 -88 0 -26 5 -36 20
-40 18 -5 20 -14 20 -80 0 -59 -3 -76 -16 -81 -20 -8 -208 -8 -228 0 -13 5
-16 22 -16 81 0 66 2 75 20 80 15 4 20 14 20 40 0 44 14 69 48 87 35 19 46 19
82 1z"/>
<path d="M282 468 c-7 -7 -12 -27 -12 -45 0 -32 1 -33 40 -33 39 0 40 1 40 33
0 36 -15 57 -40 57 -9 0 -21 -5 -28 -12z"/>
<path d="M297 324 c-14 -15 -6 -34 14 -34 14 0 19 5 17 17 -3 18 -20 27 -31
17z"/>
</g>
</svg>
