<?xml version="1.0" standalone="no"?>
<!DOCTYPE svg PUBLIC "-//W3C//DTD SVG 20010904//EN"
 "http://www.w3.org/TR/2001/REC-SVG-20010904/DTD/svg10.dtd">
<svg version="1.0" xmlns="http://www.w3.org/2000/svg"
 width="138.000000pt" height="159.000000pt" viewBox="0 0 138.000000 159.000000"
 preserveAspectRatio="xMidYMid meet">

<g transform="translate(0.000000,159.000000) scale(0.100000,-0.100000)"
fill="#8E6FEC" stroke="none">
<path d="M485 1469 c-104 -61 -256 -149 -337 -196 l-148 -85 0 -393 0 -393
273 -157 c407 -236 405 -235 417 -235 12 0 10 -1 418 235 l272 157 0 393 0
393 -137 80 c-76 43 -229 131 -340 195 -111 65 -208 117 -215 117 -7 -1 -98
-51 -203 -111z m-23 -404 c15 -33 92 -49 228 -49 138 0 213 17 228 49 11 24
16 25 98 25 94 0 84 5 196 -90 103 -87 118 -255 32 -367 -23 -31 -101 -84
-134 -91 -50 -11 -133 -3 -200 19 -65 21 -94 24 -220 24 -126 0 -155 -3 -220
-24 -67 -22 -146 -29 -200 -18 -32 6 -110 59 -134 90 -85 111 -71 280 30 365
21 18 55 46 74 62 33 28 40 29 123 30 83 0 88 -1 99 -25z"/>
<path d="M321 901 c-6 -11 -11 -29 -11 -40 0 -14 -8 -22 -27 -27 -48 -10 -53
-13 -53 -29 0 -16 5 -19 53 -29 20 -5 27 -12 27 -29 0 -13 6 -32 14 -42 19
-26 46 -13 46 23 0 35 16 52 51 52 15 0 29 6 32 13 8 22 -5 37 -33 37 -33 0
-47 15 -52 55 -4 36 -32 45 -47 16z"/>
<path d="M1034 906 c-10 -26 4 -48 28 -44 17 2 23 10 23 28 0 18 -6 26 -23 28
-13 2 -25 -3 -28 -12z"/>
<path d="M590 835 c-12 -13 -20 -29 -18 -35 2 -6 16 2 31 18 16 17 24 32 19
36 -5 3 -19 -5 -32 -19z"/>
<path d="M776 831 c-15 -16 -23 -31 -18 -35 5 -3 21 8 36 23 15 16 23 31 18
35 -5 3 -21 -8 -36 -23z"/>
<path d="M962 831 c-23 -14 -10 -46 18 -46 20 0 25 5 25 25 0 26 -20 36 -43
21z"/>
<path d="M1120 825 c-17 -21 -5 -45 24 -45 28 0 37 17 24 43 -11 21 -31 22
-48 2z"/>
<path d="M1043 753 c-18 -7 -16 -38 2 -53 20 -17 47 5 43 34 -3 21 -22 29 -45
19z"/>
</g>
</svg>
