<?xml version="1.0" standalone="no"?>
<!DOCTYPE svg PUBLIC "-//W3C//DTD SVG 20010904//EN"
 "http://www.w3.org/TR/2001/REC-SVG-20010904/DTD/svg10.dtd">
<svg version="1.0" xmlns="http://www.w3.org/2000/svg"
 width="71.000000pt" height="71.000000pt" viewBox="0 0 71.000000 71.000000"
 preserveAspectRatio="xMidYMid meet">

<g transform="translate(0.000000,71.000000) scale(0.100000,-0.100000)"
fill="#8E6FEC" stroke="none">
<path d="M265 697 c-111 -37 -181 -97 -229 -197 -45 -93 -45 -197 0 -290 40
-82 92 -134 174 -174 93 -45 197 -45 290 0 82 40 134 92 174 174 27 56 31 76
31 145 0 69 -4 89 -31 145 -39 82 -92 135 -172 173 -75 35 -173 45 -237 24z
m211 -76 c55 -25 121 -91 147 -150 29 -63 29 -169 0 -232 -27 -60 -92 -125
-152 -152 -63 -29 -169 -29 -232 0 -165 74 -226 283 -126 429 82 119 232 162
363 105z"/>
<path d="M333 548 c-6 -7 -20 -32 -32 -55 -22 -43 -28 -47 -99 -58 -61 -10
-63 -28 -10 -83 42 -45 44 -49 37 -87 -19 -98 -2 -114 75 -71 l50 28 51 -28
c79 -42 95 -27 76 71 -7 38 -5 42 37 87 54 56 51 74 -15 84 -65 9 -71 13 -102
70 -27 50 -50 65 -68 42z"/>
</g>
</svg>
