<?xml version="1.0" standalone="no"?>
<!DOCTYPE svg PUBLIC "-//W3C//DTD SVG 20010904//EN"
 "http://www.w3.org/TR/2001/REC-SVG-20010904/DTD/svg10.dtd">
<svg version="1.0" xmlns="http://www.w3.org/2000/svg"
 width="114.000000pt" height="114.000000pt" viewBox="0 0 114.000000 114.000000"
 preserveAspectRatio="xMidYMid meet">

<g transform="translate(0.000000,114.000000) scale(0.100000,-0.100000)"
fill="#8E6FEC" stroke="none">
<path d="M473 1129 c-199 -33 -379 -191 -443 -389 -72 -221 9 -477 195 -617
351 -265 842 -63 906 372 13 86 1 201 -29 267 l-17 39 -42 -43 -42 -43 11 -72
c23 -149 -20 -282 -126 -389 -106 -105 -240 -149 -387 -127 -96 15 -172 55
-245 127 -105 106 -149 240 -127 387 15 96 55 172 127 245 107 106 240 149
389 126 l72 -11 43 42 43 42 -38 17 c-76 33 -189 44 -290 27z"/>
<path d="M855 1040 l-80 -80 3 -67 3 -66 -121 -122 c-85 -86 -121 -128 -118
-141 8 -45 40 -26 163 96 l122 121 67 -3 66 -3 83 83 c96 96 97 113 8 122 -60
6 -71 18 -71 76 0 39 -13 64 -35 64 -6 0 -46 -36 -90 -80z"/>
<path d="M453 927 c-122 -43 -203 -125 -242 -245 -26 -79 -26 -145 0 -224 39
-121 126 -208 247 -247 79 -26 145 -26 224 0 189 62 303 259 257 444 -10 40
-15 45 -46 51 -29 5 -39 2 -63 -21 -24 -23 -27 -31 -19 -52 51 -136 -85 -313
-241 -313 -130 0 -250 120 -250 250 0 156 177 292 313 241 21 -8 29 -5 52 19
23 24 26 34 21 63 -6 31 -11 36 -51 46 -67 17 -133 13 -202 -12z"/>
<path d="M514 739 c-16 -5 -47 -25 -67 -46 -83 -82 -69 -205 31 -274 49 -33
135 -33 184 0 49 34 77 79 84 136 l7 50 -71 -67 c-64 -62 -74 -68 -112 -68
-59 0 -100 41 -100 100 0 38 6 48 67 111 64 67 65 69 37 68 -16 0 -43 -5 -60
-10z"/>
</g>
</svg>
