<?xml version="1.0" standalone="no"?>
<!DOCTYPE svg PUBLIC "-//W3C//DTD SVG 20010904//EN"
 "http://www.w3.org/TR/2001/REC-SVG-20010904/DTD/svg10.dtd">
<svg version="1.0" xmlns="http://www.w3.org/2000/svg"
 width="71.000000pt" height="71.000000pt" viewBox="0 0 71.000000 71.000000"
 preserveAspectRatio="xMidYMid meet">

<g transform="translate(0.000000,71.000000) scale(0.100000,-0.100000)"
fill="#8E6FEC" stroke="none">
<path d="M91 688 c-5 -14 -13 -46 -16 -72 l-8 -48 29 6 c16 3 97 17 179 31 83
15 158 29 168 33 12 5 -40 18 -140 36 -87 15 -168 30 -180 33 -17 4 -25 -1
-32 -19z"/>
<path d="M455 594 c-72 -13 -179 -33 -239 -44 -60 -11 -113 -23 -118 -28 -10
-10 75 -499 90 -514 10 -10 499 75 514 90 4 4 -1 55 -11 113 -11 57 -29 162
-41 234 -25 146 -34 175 -52 174 -7 0 -71 -12 -143 -25z m115 -174 c0 -11 -2
-20 -5 -20 -3 0 -82 -14 -176 -30 -94 -17 -175 -28 -180 -25 -8 5 -13 34 -6
35 344 67 367 70 367 40z m16 -72 c13 -21 -24 -34 -191 -62 -122 -21 -170 -25
-178 -17 -22 22 12 34 165 62 179 31 194 33 204 17z m-99 -103 c3 -9 3 -18 0
-22 -8 -7 -193 -42 -229 -43 -28 0 -39 22 -17 35 11 7 190 42 222 44 10 1 20
-6 24 -14z"/>
<path d="M46 440 c-18 -70 -45 -245 -39 -251 8 -7 95 -30 99 -26 1 1 -10 70
-26 152 -19 105 -29 143 -34 125z"/>
</g>
</svg>
